<?xml version="1.0" encoding="UTF-8"?>
<svg viewBox="0 0 640 480" xmlns="http://www.w3.org/2000/svg">
 <defs>
  <filter id="e">
   <feGaussianBlur stdDeviation="2.297086"/>
  </filter>
  <filter id="a">
   <feGaussianBlur stdDeviation="0.698115"/>
  </filter>
  <radialGradient id="g" cx="107.14" cy="458.79" r="8.5714" gradientUnits="userSpaceOnUse">
   <stop stop-color="#f8f8f8" offset="0"/>
   <stop stop-color="#454545" offset="1"/>
  </radialGradient>
  <radialGradient id="f" cx="358.82" cy="240.66" r="127.5" gradientTransform="matrix(1.832 -.40741 .26112 1.1742 -686.27 124.18)" gradientUnits="userSpaceOnUse">
   <stop stop-color="#fff" offset="0"/>
   <stop stop-color="#fff" stop-opacity="0" offset="1"/>
  </radialGradient>
 </defs>
 <g stroke-linecap="round" stroke-linejoin="round">
  <g stroke-width="4">
   <path d="m41.702 145.32c-18.284 0-32.996 15.075-32.996 33.768v33.718c0 1.0645 0.013535 2.1317 0.10696 3.1705-0.095714 0.98569-0.10696 1.9593-0.10696 2.9692v226.62c0 17.843 15.265 32.208 34.226 32.208h367.93c18.961 0 34.226-14.365 34.226-32.208v-226.62c0-17.843-15.265-32.208-34.226-32.208h-336.16v-7.6495c0-18.693-14.712-33.768-32.996-33.768z" filter="url(#e)"/>
   <path d="m38.28 138.79c-18.284 0-32.996 15.224-32.996 34.102v34.051c0 1.0751 0.013536 2.1528 0.10696 3.2018-0.095713 0.99544-0.10696 1.9786-0.10696 2.9986v228.86c0 18.02 15.265 32.527 34.226 32.527h367.93c18.961 0 34.226-14.507 34.226-32.527v-228.86c0-18.02-15.265-32.527-34.226-32.527h-336.16v-7.7251c0-18.878-14.712-34.102-32.996-34.102z"/>
   <path d="m38.28 138.79c-18.284 0-32.996 15.224-32.996 34.102v34.051c0 1.0751 0.013536 2.1528 0.10696 3.2018-0.095713 0.99544-0.10696 1.9786-0.10696 2.9986v228.86c0 18.02 15.265 32.527 34.226 32.527h367.93c18.961 0 34.226-14.507 34.226-32.527v-228.86c0-18.02-15.265-32.527-34.226-32.527h-336.16v-7.7251c0-18.878-14.712-34.102-32.996-34.102z" fill="url(#f)" opacity=".223"/>
   <rect transform="matrix(1.7065 0 0 1.5307 -507.64 -37.016)" x="301.65" y="142.19" width="254.96" height="24.286" fill="#717171" filter="url(#a)"/>
   <rect x="5.2945" y="179.47" width="436.31" height="36.012"/>
   <g fill="#fff">
    <rect transform="matrix(1.7113 0 -.92774 1.3666 -1.7119e-5 4.2875e-6)" x="292.5" y="131.32" width="33.175" height="26.351"/>
    <rect transform="matrix(1.7113 0 -.92774 1.3666 -1.7119e-5 4.2875e-6)" x="233.57" y="131.32" width="33.175" height="26.351"/>
    <rect transform="matrix(1.7113 0 -.92774 1.3666 -1.7119e-5 4.2875e-6)" x="173.22" y="131.32" width="33.175" height="26.351"/>
    <rect transform="matrix(1.7113 0 -.92774 1.3666 -1.7119e-5 4.2875e-6)" x="113.93" y="131.32" width="33.175" height="26.351"/>
   </g>
   <rect transform="matrix(1.6112 -.53444 .53077 1.4452 -563.7 107.85)" x="303.57" y="140.55" width="254.96" height="24.286" fill="#717171" filter="url(#a)"/>
   <rect transform="matrix(1.5936 -.59284 -.62381 -1.5144 -372.71 598.95)" x="303.82" y="154.61" width="254.96" height="22.143"/>
   <g fill="#fff">
    <rect transform="matrix(1.5936 -.59284 -1.3881 -.95118 -372.71 598.95)" x="621.78" y="184" width="33.175" height="26.351"/>
    <rect transform="matrix(1.5936 -.59284 -1.3881 -.95118 -372.71 598.95)" x="562.85" y="184" width="33.175" height="26.351"/>
    <rect transform="matrix(1.5936 -.59284 -1.3881 -.95118 -372.71 598.95)" x="502.5" y="184" width="33.175" height="26.351"/>
    <rect transform="matrix(1.5936 -.59284 -1.3881 -.95118 -372.71 598.95)" x="443.21" y="184" width="33.175" height="26.351"/>
   </g>
  </g>
  <path d="m43.765 158.27a5.8062 5.5179 0 1 1 -11.612 0" fill="url(#g)"/>
 </g>
</svg>
